<svg width="17" height="14" viewBox="0 0 17 14" fill="none" xmlns="http://www.w3.org/2000/svg">
<path d="M3.50001 9C3.50001 9.55228 3.94772 10 4.50001 10C5.05229 10 5.50001 9.55228 5.50001 9L5.50001 3.41421L6.79291 4.70711C7.18343 5.09763 7.8166 5.09763 8.20713 4.70711C8.59765 4.31658 8.59765 3.68342 8.20713 3.29289L5.20712 0.292893C5.01958 0.105357 4.76523 0 4.50001 0C4.23479 0 3.98044 0.105357 3.7929 0.292893L0.792894 3.29289C0.402369 3.68342 0.402369 4.31658 0.792894 4.70711C1.18342 5.09763 1.81659 5.09763 2.20711 4.70711L3.50001 3.41421L3.50001 9Z" fill="#334A77"/>
<path d="M13.5 5C13.5 4.44772 13.0523 4 12.5 4C11.9477 4 11.5 4.44772 11.5 5L11.5 10.5858L10.2071 9.29289C9.8166 8.90237 9.18344 8.90237 8.79291 9.29289C8.40239 9.68342 8.40239 10.3166 8.79291 10.7071L11.7929 13.7071C11.9805 13.8946 12.2348 14 12.5 14C12.7652 14 13.0196 13.8946 13.2071 13.7071L16.2071 10.7071C16.5977 10.3166 16.5977 9.68342 16.2071 9.29289C15.8166 8.90237 15.1835 8.90237 14.7929 9.29289L13.5 10.5858L13.5 5Z" fill="#334A77"/>
</svg>
