<svg width="227" height="72" viewBox="0 0 227 72" fill="none" xmlns="http://www.w3.org/2000/svg">
  <defs>
    <style>
      .op-animation {
          fill: #FDFDFD;
          mix-blend-mode: hard-light;
          animation-name: opacity;
          animation-duration: 5s;
          animation-iteration-count: infinite;
          opacity: 0.2;
      }
      @keyframes opacity {
          50% {
              opacity: 1;
          }
      }

  	</style>
	</defs>
<g clip-path="url(#clip0)">
<path d="M104.427 7.67578H97.1982V32.3922H103.965C106.733 32.3922 107.656 30.2429 107.656 28.0937V12.2813C107.656 9.518 107.041 7.67578 104.427 7.67578ZM104.119 29.0148H100.736V11.2067H104.119V29.0148ZM118.114 7.67578H111.655L108.887 32.3922H112.424L112.885 27.1726H116.576L117.038 32.3922H120.729L118.114 7.67578ZM113.347 23.9487L114.577 11.3602H115.192L116.422 23.9487H113.347ZM123.958 11.2067H120.267V7.67578H131.341V11.0532H127.649V32.3922H124.112V11.2067H123.958ZM139.953 7.67578H133.494L130.725 32.5457H134.263L134.724 27.3261H138.415L138.876 32.5457H142.567L139.953 7.67578ZM135.185 23.9487L136.416 11.3602H137.031L138.261 23.9487H135.185ZM160.408 28.2472C160.408 31.1641 159.331 32.5457 157.024 32.5457H153.487C151.488 32.5457 150.103 31.3176 150.103 28.4007V24.4093H153.641V29.1683H156.87V23.6417L151.641 19.1896C150.565 18.422 150.103 17.6545 150.103 15.9658V11.5137C150.103 8.90393 151.18 7.8293 153.487 7.8293H156.717C159.331 7.8293 160.254 8.90393 160.254 11.8208V15.5052H156.87V11.2067H153.641V15.9658L158.87 20.4178C159.946 21.3389 160.408 21.953 160.408 23.6417V28.2472ZM173.019 23.3346V28.2472C173.019 30.857 172.25 32.5457 169.481 32.5457H165.79C163.791 32.5457 162.407 31.3176 162.407 28.5542V11.3602C162.407 8.90393 163.483 7.8293 165.79 7.8293H169.328C172.404 7.8293 173.019 9.05744 173.019 11.8208V15.6587H169.481V11.2067H166.098V29.1683H169.481V23.4881H173.019V23.3346ZM175.172 7.67578H178.863V32.3922H175.172V7.67578ZM181.17 7.67578H189.782V11.0532H184.707V18.5756H188.398V21.953H184.707V29.0148H189.782V32.3922H181.17V7.67578ZM198.549 32.5457L196.088 21.6459C195.626 19.6502 195.011 15.9658 194.396 12.5884C194.55 15.8122 194.704 19.3432 194.704 21.1854V32.5457H191.628V7.67578H196.088L198.702 19.1896C199.164 21.3389 199.933 25.1768 200.394 28.5542C200.24 25.4839 200.086 21.953 200.086 19.9572V7.67578H203.162V32.3922H198.549V32.5457ZM216.081 23.3346V28.2472C216.081 30.857 215.312 32.5457 212.544 32.5457H208.853C206.853 32.5457 205.469 31.3176 205.469 28.5542V11.3602C205.469 8.90393 206.546 7.8293 208.853 7.8293H212.39C215.466 7.8293 216.081 9.05744 216.081 11.8208V15.6587H212.544V11.2067H209.16V29.1683H212.544V23.4881H216.081V23.3346ZM218.08 7.67578H226.693V11.0532H221.618V18.5756H225.309V21.953H221.618V29.0148H226.693V32.3922H218.08V7.67578Z" fill="#FDFDFD"/>
<path d="M97.8125 40.6823H101.657V61.2538H97.8125V40.6823ZM104.426 40.6823H108.27V58.3369H113.961V61.2538H104.426V40.6823ZM115.653 40.6823H119.497V58.3369H125.188V61.2538H115.653V40.6823ZM138.414 40.6823V57.5693C138.414 60.0256 137.338 61.1002 134.723 61.1002H130.417C128.264 61.1002 126.88 60.0256 126.88 57.7228V40.6823H130.724V58.3369H134.569V40.6823H138.414ZM151.794 57.5693C151.794 59.8721 150.718 61.1002 148.103 61.1002H144.412C142.259 61.1002 140.721 60.0256 140.721 57.7228V54.3454H144.566V58.3369H147.949V53.7314L142.259 50.0469C141.029 49.2793 140.567 48.8188 140.567 47.2836V43.7527C140.567 41.6034 141.644 40.6823 144.258 40.6823H147.796C150.718 40.6823 151.64 41.6034 151.64 44.0597V47.1301H147.796V43.5992H144.566V47.5906L150.256 51.2751C151.487 52.0427 151.794 52.6567 151.794 54.0384V57.5693ZM157.023 43.4457H153.025V40.5288H164.867V43.4457H160.868V61.1002H157.023V43.4457ZM175.786 54.1919C177.016 53.8849 177.478 52.9638 177.478 51.4286V43.9062C177.478 41.6034 176.555 40.6823 174.094 40.6823H166.251V61.2538H170.096V54.499H172.095L174.402 61.2538H178.247L175.786 54.1919ZM173.633 51.5821H170.096V43.4457H173.633V51.5821ZM188.859 40.6823H181.938L179.016 61.2538H182.861L183.322 56.9552H187.321L187.782 61.2538H191.627L188.859 40.6823ZM183.783 54.1919L185.168 43.7527H185.783L187.013 54.1919H183.783ZM195.164 43.4457H191.165V40.5288H203.008V43.4457H199.009V61.1002H195.164V43.4457ZM204.392 40.6823H213.619V43.5992H208.237V49.7399H212.235V52.5032H208.237V58.3369H213.619V61.2538H204.392V40.6823ZM223.462 40.6823H215.773V61.2538H223.155C226.231 61.2538 227.153 59.4115 227.153 57.7228V44.5203C226.999 42.064 226.384 40.6823 223.462 40.6823ZM223.155 58.3369H219.464V43.4457H223.155V58.3369Z" fill="#FDFDFD"/>
<path class="op-animation" d="M14.4566 16.7335C14.4566 15.8124 15.2256 15.1983 15.9946 15.1983C16.7635 15.1983 17.5325 15.9659 17.5325 16.7335C17.5325 17.6546 16.7635 18.2687 15.9946 18.2687C15.2256 18.2687 14.4566 17.5011 14.4566 16.7335ZM8.45867 17.8081C9.07385 17.8081 9.53523 17.3475 9.53523 16.7335C9.53523 16.1194 9.07385 15.6588 8.45867 15.6588C7.84349 15.6588 7.38211 16.1194 7.38211 16.7335C7.38211 17.3475 7.84349 17.8081 8.45867 17.8081ZM0.922764 23.4883C0.461382 23.4883 0 23.9488 0 24.4094C0 24.8699 0.461382 25.3305 0.922764 25.3305C1.38415 25.3305 1.84553 24.8699 1.84553 24.4094C1.84553 23.9488 1.38415 23.4883 0.922764 23.4883ZM15.9946 10.1322C16.6098 10.1322 17.0711 9.67164 17.0711 9.05757C17.0711 8.4435 16.6098 7.98294 15.9946 7.98294C15.3794 7.98294 14.918 8.4435 14.918 9.05757C14.918 9.51812 15.3794 10.1322 15.9946 10.1322ZM0.922764 31.3177C0.461382 31.3177 0 31.6247 0 32.2388C0 32.6994 0.461382 33.1599 0.922764 33.1599C1.38415 33.1599 1.84553 32.6994 1.84553 32.2388C1.84553 31.6247 1.38415 31.3177 0.922764 31.3177ZM31.2202 10.5928C32.1429 10.5928 32.7581 9.82516 32.7581 9.05757C32.7581 8.13646 31.9892 7.52239 31.2202 7.52239C30.2974 7.52239 29.6822 8.28998 29.6822 9.05757C29.5285 9.82516 30.2974 10.5928 31.2202 10.5928ZM31.2202 19.0362C32.4505 19.0362 33.5271 17.9616 33.5271 16.7335C33.5271 15.5053 32.4505 14.4307 31.2202 14.4307C29.9898 14.4307 28.9133 15.5053 28.9133 16.7335C28.9133 17.9616 29.836 19.0362 31.2202 19.0362ZM23.6843 10.1322C24.2995 10.1322 24.7608 9.67164 24.7608 9.05757C24.7608 8.4435 24.2995 7.98294 23.6843 7.98294C23.0691 7.98294 22.6077 8.4435 22.6077 9.05757C22.4539 9.51812 22.9153 10.1322 23.6843 10.1322ZM23.6843 19.0362C24.9146 19.0362 25.9912 17.9616 25.9912 16.7335C25.9912 15.5053 24.9146 14.4307 23.6843 14.4307C22.4539 14.4307 21.3774 15.5053 21.3774 16.7335C21.3774 17.9616 22.3001 19.0362 23.6843 19.0362ZM8.45867 22.8742C7.53591 22.8742 6.92073 23.6418 6.92073 24.4094C6.92073 25.3305 7.6897 25.9446 8.45867 25.9446C9.22764 25.9446 9.99661 25.177 9.99661 24.4094C10.1504 23.4883 9.38144 22.8742 8.45867 22.8742ZM15.9946 29.936C14.7642 29.936 13.6877 31.0107 13.6877 32.2388C13.6877 33.4669 14.7642 34.5416 15.9946 34.5416C17.2249 34.5416 18.3015 33.4669 18.3015 32.2388C18.3015 30.8571 17.3787 29.936 15.9946 29.936ZM15.9946 22.1066C14.7642 22.1066 13.6877 23.1812 13.6877 24.4094C13.6877 25.6375 14.7642 26.7122 15.9946 26.7122C17.2249 26.7122 18.3015 25.6375 18.3015 24.4094C18.3015 23.1812 17.3787 22.1066 15.9946 22.1066ZM23.6843 46.516C23.0691 46.516 22.6077 46.9765 22.6077 47.5906C22.6077 48.2047 23.0691 48.6652 23.6843 48.6652C24.2995 48.6652 24.7608 48.2047 24.7608 47.5906C24.7608 47.1301 24.2995 46.516 23.6843 46.516ZM23.6843 37.6119C22.4539 37.6119 21.3774 38.6866 21.3774 39.9147C21.3774 41.1429 22.4539 42.2175 23.6843 42.2175C24.9146 42.2175 25.9912 41.1429 25.9912 39.9147C25.9912 38.6866 24.9146 37.6119 23.6843 37.6119ZM31.2202 2.14925C31.6816 2.14925 32.1429 1.6887 32.1429 1.22815C32.1429 0.767591 31.6816 0.307036 31.2202 0.307036C30.7588 0.307036 30.2974 0.767591 30.2974 1.22815C30.2974 1.6887 30.605 2.14925 31.2202 2.14925ZM8.45867 30.5501C7.53591 30.5501 6.92073 31.3177 6.92073 32.0853C6.92073 33.0064 7.6897 33.6205 8.45867 33.6205C9.22764 33.6205 9.99661 32.8529 9.99661 32.0853C10.1504 31.3177 9.38144 30.5501 8.45867 30.5501ZM8.45867 38.8401C7.84349 38.8401 7.38211 39.3006 7.38211 39.9147C7.38211 40.5288 7.84349 40.9893 8.45867 40.9893C9.07385 40.9893 9.53523 40.5288 9.53523 39.9147C9.68902 39.3006 9.07385 38.8401 8.45867 38.8401ZM15.9946 38.3795C15.0718 38.3795 14.4566 39.1471 14.4566 39.9147C14.4566 40.8358 15.2256 41.4499 15.9946 41.4499C16.7635 41.4499 17.5325 40.6823 17.5325 39.9147C17.6863 39.1471 16.9173 38.3795 15.9946 38.3795ZM53.8279 2.14925C54.2893 2.14925 54.7507 1.6887 54.7507 1.22815C54.7507 0.767591 54.2893 0.307036 53.8279 0.307036C53.3665 0.307036 52.9051 0.767591 52.9051 1.22815C52.9051 1.6887 53.3665 2.14925 53.8279 2.14925ZM69.0535 26.7122C70.2839 26.7122 71.3604 25.6375 71.3604 24.4094C71.3604 23.1812 70.2839 22.1066 69.0535 22.1066C67.8232 22.1066 66.7466 23.1812 66.7466 24.4094C66.7466 25.6375 67.6694 26.7122 69.0535 26.7122ZM69.0535 18.2687C69.9763 18.2687 70.5915 17.5011 70.5915 16.7335C70.5915 15.8124 69.8225 15.1983 69.0535 15.1983C68.2845 15.1983 67.5156 15.9659 67.5156 16.7335C67.3618 17.5011 68.1308 18.2687 69.0535 18.2687ZM61.3638 10.5928C62.2866 10.5928 62.9018 9.82516 62.9018 9.05757C62.9018 8.13646 62.1328 7.52239 61.3638 7.52239C60.4411 7.52239 59.8259 8.28998 59.8259 9.05757C59.8259 9.82516 60.5948 10.5928 61.3638 10.5928ZM38.7561 19.4968C40.294 19.4968 41.5244 18.2687 41.5244 16.7335C41.5244 15.1983 40.294 13.9701 38.7561 13.9701C37.2182 13.9701 35.9878 15.1983 35.9878 16.7335C35.9878 18.2687 37.2182 19.4968 38.7561 19.4968ZM77.0508 17.8081C77.666 17.8081 78.1274 17.3475 78.1274 16.7335C78.1274 16.1194 77.666 15.6588 77.0508 15.6588C76.4356 15.6588 75.9742 16.1194 75.9742 16.7335C75.9742 17.3475 76.4356 17.8081 77.0508 17.8081ZM61.3638 19.0362C62.5942 19.0362 63.6707 17.9616 63.6707 16.7335C63.6707 15.5053 62.5942 14.4307 61.3638 14.4307C60.1335 14.4307 59.0569 15.5053 59.0569 16.7335C59.0569 17.9616 60.1335 19.0362 61.3638 19.0362ZM69.0535 10.1322C69.6687 10.1322 70.1301 9.67164 70.1301 9.05757C70.1301 8.4435 69.6687 7.98294 69.0535 7.98294C68.4383 7.98294 67.977 8.4435 67.977 9.05757C67.8232 9.51812 68.2845 10.1322 69.0535 10.1322ZM77.0508 26.0981C77.9736 26.0981 78.5887 25.3305 78.5887 24.5629C78.5887 23.6418 77.8198 23.0277 77.0508 23.0277C76.128 23.0277 75.5129 23.7953 75.5129 24.5629C75.5129 25.3305 76.2818 26.0981 77.0508 26.0981ZM84.1253 25.3305C84.5867 25.3305 85.0481 24.8699 85.0481 24.4094C85.0481 23.9488 84.5867 23.4883 84.1253 23.4883C83.6639 23.4883 83.2026 23.9488 83.2026 24.4094C83.2026 25.0235 83.6639 25.3305 84.1253 25.3305ZM46.4458 19.4968C47.9837 19.4968 49.2141 18.2687 49.2141 16.7335C49.2141 15.1983 47.9837 13.9701 46.4458 13.9701C44.9079 13.9701 43.6775 15.1983 43.6775 16.7335C43.6775 18.2687 44.9079 19.4968 46.4458 19.4968ZM53.8279 10.5928C54.7507 10.5928 55.3658 9.82516 55.3658 9.05757C55.3658 8.13646 54.5969 7.52239 53.8279 7.52239C52.9051 7.52239 52.29 8.28998 52.29 9.05757C52.29 9.82516 52.9051 10.5928 53.8279 10.5928ZM38.7561 10.5928C39.6789 10.5928 40.294 9.82516 40.294 9.05757C40.294 8.13646 39.5251 7.52239 38.7561 7.52239C37.8333 7.52239 37.2182 8.28998 37.2182 9.05757C37.0644 9.82516 37.8333 10.5928 38.7561 10.5928ZM46.4458 10.5928C47.3686 10.5928 47.9837 9.82516 47.9837 9.05757C47.9837 8.13646 47.2148 7.52239 46.4458 7.52239C45.523 7.52239 44.9079 8.28998 44.9079 9.05757C44.9079 9.82516 45.523 10.5928 46.4458 10.5928ZM38.7561 2.30277C39.3713 2.30277 39.8326 1.84222 39.8326 1.22815C39.8326 0.614073 39.3713 0.153518 38.7561 0.153518C38.1409 0.153518 37.6795 0.614073 37.6795 1.22815C37.5257 1.84222 38.1409 2.30277 38.7561 2.30277ZM23.6843 29.7825C22.3001 29.7825 21.2236 30.8571 21.2236 32.2388C21.2236 33.6205 22.3001 34.6951 23.6843 34.6951C25.0684 34.6951 26.145 33.6205 26.145 32.2388C26.145 30.8571 25.0684 29.7825 23.6843 29.7825ZM46.4458 2.30277C47.061 2.30277 47.5224 1.84222 47.5224 1.22815C47.6761 0.460554 47.061 0 46.4458 0C45.8306 0 45.3692 0.460554 45.3692 1.07463C45.3692 1.84222 45.8306 2.30277 46.4458 2.30277ZM53.8279 19.4968C55.3658 19.4968 56.5962 18.2687 56.5962 16.7335C56.5962 15.1983 55.3658 13.9701 53.8279 13.9701C52.29 13.9701 51.0596 15.1983 51.0596 16.7335C51.0596 18.2687 52.29 19.4968 53.8279 19.4968ZM61.3638 37.1514C59.8259 37.1514 58.5955 38.3795 58.5955 39.9147C58.5955 41.4499 59.8259 42.678 61.3638 42.678C62.9018 42.678 64.1321 41.4499 64.1321 39.9147C64.1321 38.3795 62.9018 37.1514 61.3638 37.1514ZM61.3638 53.8849C60.4411 53.8849 59.8259 54.6524 59.8259 55.42C59.8259 56.3411 60.5948 56.9552 61.3638 56.9552C62.2866 56.9552 62.9018 56.1876 62.9018 55.42C63.0555 54.6524 62.2866 53.8849 61.3638 53.8849ZM61.3638 29.4755C59.8259 29.4755 58.5955 30.7036 58.5955 32.2388C58.5955 33.774 59.8259 35.0021 61.3638 35.0021C62.9018 35.0021 64.1321 33.774 64.1321 32.2388C64.1321 30.7036 62.9018 29.4755 61.3638 29.4755ZM61.3638 45.4414C60.1335 45.4414 59.0569 46.516 59.0569 47.7441C59.0569 48.9723 60.1335 50.0469 61.3638 50.0469C62.5942 50.0469 63.6707 48.9723 63.6707 47.7441C63.6707 46.516 62.748 45.4414 61.3638 45.4414ZM69.0535 54.3454C68.4383 54.3454 67.977 54.806 67.977 55.42C67.977 56.0341 68.4383 56.4947 69.0535 56.4947C69.6687 56.4947 70.1301 56.0341 70.1301 55.42C70.1301 54.806 69.6687 54.3454 69.0535 54.3454ZM61.3638 21.6461C59.8259 21.6461 58.5955 22.8742 58.5955 24.4094C58.5955 25.9446 59.8259 27.1727 61.3638 27.1727C62.9018 27.1727 64.1321 25.9446 64.1321 24.4094C64.1321 22.8742 62.9018 21.6461 61.3638 21.6461ZM53.8279 29.322C52.1362 29.322 50.9058 30.7036 50.9058 32.2388C50.9058 33.9275 52.29 35.1556 53.8279 35.1556C55.5196 35.1556 56.75 33.774 56.75 32.2388C56.75 30.5501 55.5196 29.322 53.8279 29.322ZM53.8279 21.4925C52.1362 21.4925 50.9058 22.8742 50.9058 24.4094C50.9058 26.0981 52.29 27.3262 53.8279 27.3262C55.5196 27.3262 56.75 25.9446 56.75 24.4094C56.75 22.8742 55.5196 21.4925 53.8279 21.4925ZM61.3638 70.1578C60.9024 70.1578 60.441 70.6183 60.441 71.0789C60.441 71.5394 60.9024 72 61.3638 72C61.8252 72 62.2866 71.5394 62.2866 71.0789C62.2866 70.4648 61.979 70.1578 61.3638 70.1578ZM61.3638 62.1748C60.7486 62.1748 60.2873 62.6354 60.2873 63.2495C60.2873 63.8635 60.7486 64.3241 61.3638 64.3241C61.979 64.3241 62.4404 63.8635 62.4404 63.2495C62.5942 62.6354 62.1328 62.1748 61.3638 62.1748ZM77.0508 38.3795C76.128 38.3795 75.5129 39.1471 75.5129 39.9147C75.5129 40.8358 76.2818 41.4499 77.0508 41.4499C77.9736 41.4499 78.5887 40.6823 78.5887 39.9147C78.7425 39.1471 77.9736 38.3795 77.0508 38.3795ZM84.1253 38.9936C83.6639 38.9936 83.2026 39.4542 83.2026 39.9147C83.2026 40.3753 83.6639 40.8358 84.1253 40.8358C84.5867 40.8358 85.0481 40.3753 85.0481 39.9147C85.0481 39.4542 84.5867 38.9936 84.1253 38.9936ZM77.0508 29.936C75.8204 29.936 74.7439 31.0107 74.7439 32.2388C74.7439 33.4669 75.8204 34.5416 77.0508 34.5416C78.2812 34.5416 79.3577 33.4669 79.3577 32.2388C79.3577 30.8571 78.4349 29.936 77.0508 29.936ZM53.8279 37.1514C52.29 37.1514 51.0596 38.3795 51.0596 39.9147C51.0596 41.4499 52.29 42.678 53.8279 42.678C55.3658 42.678 56.5962 41.4499 56.5962 39.9147C56.5962 38.3795 55.3658 37.1514 53.8279 37.1514ZM84.1253 31.0107C83.5102 31.0107 83.0488 31.4712 83.0488 32.0853C83.0488 32.6994 83.5102 33.1599 84.1253 33.1599C84.7405 33.1599 85.2019 32.6994 85.2019 32.0853C85.2019 31.6247 84.7405 31.0107 84.1253 31.0107ZM69.0535 37.6119C67.8232 37.6119 66.7466 38.6866 66.7466 39.9147C66.7466 41.1429 67.8232 42.2175 69.0535 42.2175C70.2839 42.2175 71.3604 41.1429 71.3604 39.9147C71.3604 38.6866 70.2839 37.6119 69.0535 37.6119ZM69.0535 46.0554C68.1308 46.0554 67.5156 46.823 67.5156 47.5906C67.5156 48.5117 68.2845 49.1258 69.0535 49.1258C69.8225 49.1258 70.5915 48.3582 70.5915 47.5906C70.5915 46.823 69.8225 46.0554 69.0535 46.0554ZM77.0508 46.516C76.4356 46.516 75.9742 46.9765 75.9742 47.5906C75.9742 48.2047 76.4356 48.6652 77.0508 48.6652C77.666 48.6652 78.1274 48.2047 78.1274 47.5906C78.2812 47.1301 77.666 46.516 77.0508 46.516ZM23.6843 21.9531C22.3001 21.9531 21.2236 23.0277 21.2236 24.4094C21.2236 25.791 22.3001 26.8657 23.6843 26.8657C25.0684 26.8657 26.145 25.791 26.145 24.4094C26.145 23.0277 25.0684 21.9531 23.6843 21.9531ZM69.0535 29.4755C67.5156 29.4755 66.2852 30.7036 66.2852 32.2388C66.2852 33.774 67.5156 35.0021 69.0535 35.0021C70.5915 35.0021 71.8218 33.774 71.8218 32.2388C71.8218 30.7036 70.5915 29.4755 69.0535 29.4755ZM38.7561 46.0554C37.8333 46.0554 37.2182 46.823 37.2182 47.5906C37.2182 48.5117 37.9871 49.1258 38.7561 49.1258C39.6789 49.1258 40.294 48.3582 40.294 47.5906C40.294 46.823 39.6789 46.0554 38.7561 46.0554ZM38.7561 37.6119C37.5257 37.6119 36.4492 38.6866 36.4492 39.9147C36.4492 41.1429 37.5257 42.2175 38.7561 42.2175C39.9864 42.2175 41.063 41.1429 41.063 39.9147C41.063 38.6866 39.9864 37.6119 38.7561 37.6119ZM38.7561 29.322C37.0644 29.322 35.834 30.7036 35.834 32.2388C35.834 33.9275 37.2182 35.1556 38.7561 35.1556C40.4478 35.1556 41.6782 33.774 41.6782 32.2388C41.6782 30.5501 40.4478 29.322 38.7561 29.322ZM38.7561 54.3454C38.1409 54.3454 37.6795 54.806 37.6795 55.42C37.6795 56.0341 38.1409 56.4947 38.7561 56.4947C39.3713 56.4947 39.8326 56.0341 39.8326 55.42C39.8326 54.806 39.3713 54.3454 38.7561 54.3454ZM38.7561 21.4925C37.0644 21.4925 35.834 22.8742 35.834 24.4094C35.834 26.0981 37.2182 27.3262 38.7561 27.3262C40.4478 27.3262 41.6782 25.9446 41.6782 24.4094C41.6782 22.8742 40.4478 21.4925 38.7561 21.4925ZM31.2202 46.516C30.605 46.516 30.1436 46.9765 30.1436 47.5906C30.1436 48.2047 30.605 48.6652 31.2202 48.6652C31.8354 48.6652 32.2967 48.2047 32.2967 47.5906C32.2967 47.1301 31.8354 46.516 31.2202 46.516ZM31.2202 37.6119C29.9898 37.6119 28.9133 38.6866 28.9133 39.9147C28.9133 41.1429 29.9898 42.2175 31.2202 42.2175C32.4505 42.2175 33.5271 41.1429 33.5271 39.9147C33.5271 38.6866 32.4505 37.6119 31.2202 37.6119ZM31.2202 21.6461C29.6822 21.6461 28.4519 22.8742 28.4519 24.4094C28.4519 25.9446 29.6822 27.1727 31.2202 27.1727C32.7581 27.1727 33.9885 25.9446 33.9885 24.4094C33.9885 22.8742 32.7581 21.6461 31.2202 21.6461ZM31.2202 29.4755C29.6822 29.4755 28.4519 30.7036 28.4519 32.2388C28.4519 33.774 29.6822 35.0021 31.2202 35.0021C32.7581 35.0021 33.9885 33.774 33.9885 32.2388C33.9885 30.7036 32.7581 29.4755 31.2202 29.4755ZM53.8279 62.1748C53.2127 62.1748 52.7513 62.6354 52.7513 63.2495C52.7513 63.8635 53.2127 64.3241 53.8279 64.3241C54.4431 64.3241 54.9045 63.8635 54.9045 63.2495C55.0583 62.6354 54.4431 62.1748 53.8279 62.1748ZM46.4458 54.3454C45.8306 54.3454 45.3692 54.806 45.3692 55.42C45.3692 56.0341 45.8306 56.4947 46.4458 56.4947C47.061 56.4947 47.5224 56.0341 47.5224 55.42C47.6761 54.806 47.061 54.3454 46.4458 54.3454ZM53.8279 53.8849C52.9051 53.8849 52.29 54.6524 52.29 55.42C52.29 56.3411 53.0589 56.9552 53.8279 56.9552C54.7507 56.9552 55.3658 56.1876 55.3658 55.42C55.5196 54.6524 54.7507 53.8849 53.8279 53.8849ZM46.4458 21.4925C44.7541 21.4925 43.5237 22.8742 43.5237 24.4094C43.5237 26.0981 44.9079 27.3262 46.4458 27.3262C48.1375 27.3262 49.3679 25.9446 49.3679 24.4094C49.3679 22.8742 48.1375 21.4925 46.4458 21.4925ZM53.8279 45.4414C52.5976 45.4414 51.521 46.516 51.521 47.7441C51.521 48.9723 52.5976 50.0469 53.8279 50.0469C55.0583 50.0469 56.1348 48.9723 56.1348 47.7441C56.1348 46.516 55.2121 45.4414 53.8279 45.4414ZM46.4458 45.4414C45.2154 45.4414 44.1389 46.516 44.1389 47.7441C44.1389 48.9723 45.2154 50.0469 46.4458 50.0469C47.6761 50.0469 48.7527 48.9723 48.7527 47.7441C48.7527 46.516 47.6761 45.4414 46.4458 45.4414ZM46.4458 37.1514C44.9079 37.1514 43.6775 38.3795 43.6775 39.9147C43.6775 41.4499 44.9079 42.678 46.4458 42.678C47.9837 42.678 49.2141 41.4499 49.2141 39.9147C49.2141 38.3795 47.9837 37.1514 46.4458 37.1514ZM46.4458 29.322C44.7541 29.322 43.5237 30.7036 43.5237 32.2388C43.5237 33.9275 44.9079 35.1556 46.4458 35.1556C48.1375 35.1556 49.3679 33.774 49.3679 32.2388C49.3679 30.5501 48.1375 29.322 46.4458 29.322Z" fill="url(#paint0_radial)"/>
</g>
<defs>
<radialGradient id="paint0_radial" cx="0" cy="0" r="1" gradientUnits="userSpaceOnUse" gradientTransform="translate(42.6314 35.973) scale(39.4725 39.4017)">
<stop stop-color="#ECECEC"/>
<stop offset="1" stop-color="white"/>
</radialGradient>
<clipPath id="clip0">
<rect width="227" height="72" fill="white"/>
</clipPath>
</defs>
</svg>
