<svg width="131" height="54" viewBox="0 0 131 54" fill="none" xmlns="http://www.w3.org/2000/svg">
<path d="M7.28644 0H0V24.9111H6.82135C9.6119 24.9111 10.5421 22.7449 10.5421 20.5787V4.64182C10.5421 1.85673 9.92196 0 7.28644 0ZM6.97637 21.5071H3.5657V3.55873H6.97637V21.5071ZM21.0842 0H14.5729L11.7823 24.9111H15.348L15.8131 19.6504H19.5339L19.999 24.9111H23.7197L21.0842 0ZM16.2782 16.4011L17.5185 3.71346H18.1386L19.3788 16.4011H16.2782ZM26.9753 3.55873H23.2546V0H34.4168V3.404H30.6961V24.9111H27.1304V3.55873H26.9753ZM43.0985 0H36.5872L33.7967 25.0658H37.3624L37.8275 19.8051H41.5482L42.0133 25.0658H45.734L43.0985 0ZM38.2926 16.4011L39.5328 3.71346H40.1529L41.3932 16.4011H38.2926ZM63.7176 20.7335C63.7176 23.6733 62.6324 25.0658 60.3069 25.0658H56.7412C54.7258 25.0658 53.3306 23.828 53.3306 20.8882V16.8653H56.8963V21.6618H60.1519V16.0916L54.8809 11.6046C53.7956 10.8309 53.3306 10.0573 53.3306 8.35528V3.86818C53.3306 1.23782 54.4158 0.154727 56.7412 0.154727H59.9969C62.6324 0.154727 63.5626 1.23782 63.5626 4.17764V7.89109H60.1519V3.55873H56.8963V8.35528L62.1673 12.8424C63.2525 13.7707 63.7176 14.3896 63.7176 16.0916V20.7335ZM76.4301 15.7822V20.7335C76.4301 23.3638 75.655 25.0658 72.8644 25.0658H69.1437C67.1283 25.0658 65.733 23.828 65.733 21.0429V3.71346C65.733 1.23782 66.8182 0.154727 69.1437 0.154727H72.7094C75.81 0.154727 76.4301 1.39255 76.4301 4.17764V8.04582H72.8644V3.55873H69.4537V21.6618H72.8644V15.9369H76.4301V15.7822ZM78.6006 0H82.3213V24.9111H78.6006V0ZM84.6468 0H93.3285V3.404H88.2125V10.9856H91.9332V14.3896H88.2125V21.5071H93.3285V24.9111H84.6468V0ZM102.165 25.0658L99.6847 14.0802C99.2196 12.0687 98.5995 8.35528 97.9794 4.95127C98.1344 8.20055 98.2894 11.7593 98.2894 13.616V25.0658H95.1888V0H99.6847L102.32 11.6046C102.785 13.7707 103.561 17.6389 104.026 21.0429C103.871 17.9484 103.716 14.3896 103.716 12.3782V0H106.816V24.9111H102.165V25.0658ZM119.839 15.7822V20.7335C119.839 23.3638 119.064 25.0658 116.273 25.0658H112.552C110.537 25.0658 109.142 23.828 109.142 21.0429V3.71346C109.142 1.23782 110.227 0.154727 112.552 0.154727H116.118C119.219 0.154727 119.839 1.39255 119.839 4.17764V8.04582H116.273V3.55873H112.862V21.6618H116.273V15.9369H119.839V15.7822ZM121.854 0H130.536V3.404H125.42V10.9856H129.141V14.3896H125.42V21.5071H130.536V24.9111H121.854V0Z" fill="#334A77"/>
<path d="M0 33.2665H3.87577V54H0V33.2665ZM6.66632 33.2665H10.5421V51.0602H16.2782V54H6.66632V33.2665ZM17.9836 33.2665H21.8593V51.0602H27.5955V54H17.9836V33.2665ZM40.9281 33.2665V50.2866C40.9281 52.7622 39.8429 53.8453 37.2074 53.8453H32.8665C30.6961 53.8453 29.3008 52.7622 29.3008 50.4413V33.2665H33.1766V51.0602H37.0523V33.2665H40.9281ZM54.4158 50.2866C54.4158 52.6075 53.3306 53.8453 50.695 53.8453H46.9743C44.8039 53.8453 43.2536 52.7622 43.2536 50.4413V47.0373H47.1293V51.0602H50.54V46.4184L44.8039 42.7049C43.5636 41.9313 43.0985 41.4671 43.0985 39.9198V36.3611C43.0985 34.1949 44.1838 33.2665 46.8193 33.2665H50.385C53.3306 33.2665 54.2607 34.1949 54.2607 36.6705V39.7651H50.385V36.2064H47.1293V40.2293L52.8655 43.9427C54.1057 44.7164 54.4158 45.3353 54.4158 46.7278V50.2866ZM59.6868 36.0516H55.656V33.1118H67.5934V36.0516H63.5626V53.8453H59.6868V36.0516ZM78.6006 46.8826C79.8408 46.5731 80.3059 45.6447 80.3059 44.0975V36.5158C80.3059 34.1949 79.3757 33.2665 76.8952 33.2665H68.9887V54H72.8644V47.192H74.8798L77.2053 54H81.081L78.6006 46.8826ZM76.4301 44.2522H72.8644V36.0516H76.4301V44.2522ZM91.7782 33.2665H84.8018L81.8562 54H85.732L86.1971 49.6676H90.2279L90.6929 54H94.5687L91.7782 33.2665ZM86.6622 46.8826L88.0574 36.3611H88.6776L89.9178 46.8826H86.6622ZM98.1344 36.0516H94.1036V33.1118H106.041V36.0516H102.01V53.8453H98.1344V36.0516ZM107.436 33.2665H116.738V36.2064H111.312V42.3955H115.343V45.1806H111.312V51.0602H116.738V54H107.436V33.2665ZM126.66 33.2665H118.909V54H126.35C129.451 54 130.381 52.1433 130.381 50.4413V37.1347C130.226 34.6591 129.606 33.2665 126.66 33.2665ZM126.35 51.0602H122.629V36.0516H126.35V51.0602Z" fill="#334A77"/>
</svg>
