<svg width="256" height="114" viewBox="0 0 256 114" fill="none" xmlns="http://www.w3.org/2000/svg">
<path d="M48.0475 0H38V33.7901H47.4062C51.2542 33.7901 52.5368 30.8518 52.5368 27.9136V6.2963C52.5368 2.51852 51.6817 0 48.0475 0ZM47.6199 29.1728H42.9169V4.82716H47.6199V29.1728ZM67.0736 0H58.095L54.247 33.7901H59.1639L59.8052 26.6543H64.9359L65.5772 33.7901H70.7078L67.0736 0ZM60.4465 22.2469L62.1568 5.03704H63.0119L64.7221 22.2469H60.4465ZM75.1971 4.82716H70.0665V0H85.4584V4.61728H80.3278V33.7901H75.4109V4.82716H75.1971ZM97.4299 0H88.4513L84.6033 34H89.5202L90.1615 26.8642H95.2922L95.9335 34H101.064L97.4299 0ZM90.8029 22.2469L92.5131 5.03704H93.3682L95.0784 22.2469H90.8029ZM125.862 28.1235C125.862 32.1111 124.366 34 121.159 34H116.242C113.463 34 111.539 32.321 111.539 28.3333V22.8765H116.456V29.3827H120.945V21.8272L113.677 15.7407C112.181 14.6914 111.539 13.642 111.539 11.3333V5.24691C111.539 1.67901 113.036 0.209876 116.242 0.209876H120.732C124.366 0.209876 125.648 1.67901 125.648 5.66667V10.7037H120.945V4.82716H116.456V11.3333L123.724 17.4198C125.221 18.679 125.862 19.5185 125.862 21.8272V28.1235ZM143.392 21.4074V28.1235C143.392 31.6914 142.323 34 138.475 34H133.344C130.565 34 128.641 32.321 128.641 28.5432V5.03704C128.641 1.67901 130.138 0.209876 133.344 0.209876H138.261C142.537 0.209876 143.392 1.88889 143.392 5.66667V10.9136H138.475V4.82716H133.772V29.3827H138.475V21.6173H143.392V21.4074ZM146.385 0H151.515V33.7901H146.385V0ZM154.722 0H166.694V4.61728H159.639V14.9012H164.77V19.5185H159.639V29.1728H166.694V33.7901H154.722V0ZM178.879 34L175.458 19.0988C174.817 16.3704 173.962 11.3333 173.107 6.71605C173.321 11.1235 173.534 15.9506 173.534 18.4691V34H169.259V0H175.458L179.093 15.7407C179.734 18.679 180.803 23.9259 181.444 28.5432C181.23 24.3457 181.017 19.5185 181.017 16.7901V0H185.292V33.7901H178.879V34ZM203.249 21.4074V28.1235C203.249 31.6914 202.181 34 198.333 34H193.202C190.423 34 188.499 32.321 188.499 28.5432V5.03704C188.499 1.67901 189.995 0.209876 193.202 0.209876H198.119C202.394 0.209876 203.249 1.88889 203.249 5.66667V10.9136H198.333V4.82716H193.629V29.3827H198.333V21.6173H203.249V21.4074ZM206.029 0H218V4.61728H210.945V14.9012H216.076V19.5185H210.945V29.1728H218V33.7901H206.029V0Z" fill="white"/>
<path d="M38 46.2074H43.3508V74H38V46.2074ZM47.2033 46.2074H52.5541V70.0593H60.4732V74H47.2033V46.2074ZM62.8276 46.2074H68.1784V70.0593H76.0975V74H62.8276V46.2074ZM94.5042 46.2074V69.0222C94.5042 72.3407 93.0059 73.7926 89.3674 73.7926H83.3746C80.3781 73.7926 78.4518 72.3407 78.4518 69.2296V46.2074H83.8026V70.0593H89.1534V46.2074H94.5042ZM113.125 69.0222C113.125 72.1333 111.627 73.7926 107.988 73.7926H102.851C99.8549 73.7926 97.7146 72.3407 97.7146 69.2296V64.6667H103.065V70.0593H107.774V63.837L99.8549 58.8593C98.1427 57.8222 97.5006 57.2 97.5006 55.1259V50.3556C97.5006 47.4519 98.9988 46.2074 102.637 46.2074H107.56C111.627 46.2074 112.911 47.4519 112.911 50.7704V54.9185H107.56V50.1481H103.065V55.5407L110.985 60.5185C112.697 61.5556 113.125 62.3852 113.125 64.2519V69.0222ZM120.402 49.9407H114.837V46H131.317V49.9407H125.753V73.7926H120.402V49.9407ZM146.514 64.4593C148.226 64.0444 148.868 62.8 148.868 60.7259V50.563C148.868 47.4519 147.584 46.2074 144.159 46.2074H133.244V74H138.595V64.8741H141.377L144.587 74H149.938L146.514 64.4593ZM143.517 60.9333H138.595V49.9407H143.517V60.9333ZM164.706 46.2074H155.075L151.008 74H156.359L157.001 68.1926H162.566L163.208 74H168.559L164.706 46.2074ZM157.643 64.4593L159.57 50.3556H160.426L162.138 64.4593H157.643ZM173.482 49.9407H167.917V46H184.397V49.9407H178.832V73.7926H173.482V49.9407ZM186.323 46.2074H199.165V50.1481H191.674V58.4444H197.239V62.1778H191.674V70.0593H199.165V74H186.323V46.2074ZM212.863 46.2074H202.162V74H212.435C216.716 74 218 71.5111 218 69.2296V51.3926C217.786 48.0741 216.93 46.2074 212.863 46.2074ZM212.435 70.0593H207.298V49.9407H212.435V70.0593Z" fill="white"/>
</svg>
