<svg width="262" height="227" viewBox="0 0 262 227" fill="none" xmlns="http://www.w3.org/2000/svg">
  <defs>
    <style>
      .op-animation {
          fill: #334A77;
          mix-blend-mode: hard-light;
          animation-name: opacity;
          animation-duration: 5s;
          animation-iteration-count: infinite;
          opacity: 0.6;
      }
      @keyframes opacity {
          50% {
              opacity: 1;
          }
      }

  	</style>
	</defs>
<g class="op-animation" style="mix-blend-mode:darken">
<path d="M44.4549 53.0336C44.4549 50.1421 46.8195 48.2144 49.1841 48.2144C51.5487 48.2144 53.9134 50.624 53.9134 53.0336C53.9134 55.9251 51.5487 57.8527 49.1841 57.8527C46.8195 57.8527 44.4549 55.4432 44.4549 53.0336ZM26.0108 56.407C27.9025 56.407 29.3213 54.9612 29.3213 53.0336C29.3213 51.1059 27.9025 49.6602 26.0108 49.6602C24.1191 49.6602 22.7004 51.1059 22.7004 53.0336C22.7004 54.9612 24.1191 56.407 26.0108 56.407ZM2.83755 74.2378C1.41877 74.2378 0 75.6836 0 77.1293C0 78.5751 1.41877 80.0208 2.83755 80.0208C4.25632 80.0208 5.67509 78.5751 5.67509 77.1293C5.67509 75.6836 4.25632 74.2378 2.83755 74.2378ZM49.1841 32.3113C51.0758 32.3113 52.4946 30.8655 52.4946 28.9379C52.4946 27.0102 51.0758 25.5644 49.1841 25.5644C47.2924 25.5644 45.8736 27.0102 45.8736 28.9379C45.8736 30.3836 47.2924 32.3113 49.1841 32.3113ZM2.83755 98.8155C1.41877 98.8155 0 99.7793 0 101.707C0 103.153 1.41877 104.598 2.83755 104.598C4.25632 104.598 5.67509 103.153 5.67509 101.707C5.67509 99.7793 4.25632 98.8155 2.83755 98.8155ZM96.0036 33.757C98.8411 33.757 100.733 31.3474 100.733 28.9379C100.733 26.0464 98.3682 24.1187 96.0036 24.1187C93.1661 24.1187 91.2744 26.5283 91.2744 28.9379C90.8014 31.3474 93.1661 33.757 96.0036 33.757ZM96.0036 60.2623C99.787 60.2623 103.097 56.8889 103.097 53.0336C103.097 49.1783 99.787 45.8049 96.0036 45.8049C92.2202 45.8049 88.9097 49.1783 88.9097 53.0336C88.9097 56.8889 91.7473 60.2623 96.0036 60.2623ZM72.8303 32.3113C74.722 32.3113 76.1408 30.8655 76.1408 28.9379C76.1408 27.0102 74.722 25.5644 72.8303 25.5644C70.9386 25.5644 69.5199 27.0102 69.5199 28.9379C69.0469 30.3836 70.4657 32.3113 72.8303 32.3113ZM72.8303 60.2623C76.6137 60.2623 79.9242 56.8889 79.9242 53.0336C79.9242 49.1783 76.6137 45.8049 72.8303 45.8049C69.0469 45.8049 65.7365 49.1783 65.7365 53.0336C65.7365 56.8889 68.574 60.2623 72.8303 60.2623ZM26.0108 72.3102C23.1733 72.3102 21.2816 74.7197 21.2816 77.1293C21.2816 80.0208 23.6462 81.9485 26.0108 81.9485C28.3755 81.9485 30.7401 79.5389 30.7401 77.1293C31.213 74.2378 28.8484 72.3102 26.0108 72.3102ZM49.1841 94.4783C45.4007 94.4783 42.0902 97.8517 42.0902 101.707C42.0902 105.562 45.4007 108.936 49.1841 108.936C52.9675 108.936 56.278 105.562 56.278 101.707C56.278 97.3697 53.4404 94.4783 49.1841 94.4783ZM49.1841 69.9006C45.4007 69.9006 42.0902 73.274 42.0902 77.1293C42.0902 80.9846 45.4007 84.358 49.1841 84.358C52.9675 84.358 56.278 80.9846 56.278 77.1293C56.278 73.274 53.4404 69.9006 49.1841 69.9006ZM72.8303 146.525C70.9386 146.525 69.5199 147.971 69.5199 149.898C69.5199 151.826 70.9386 153.272 72.8303 153.272C74.722 153.272 76.1408 151.826 76.1408 149.898C76.1408 148.453 74.722 146.525 72.8303 146.525ZM72.8303 118.574C69.0469 118.574 65.7365 121.947 65.7365 125.803C65.7365 129.658 69.0469 133.031 72.8303 133.031C76.6137 133.031 79.9242 129.658 79.9242 125.803C79.9242 121.947 76.6137 118.574 72.8303 118.574ZM96.0036 7.25169C97.4224 7.25169 98.8411 5.80595 98.8411 4.3602C98.8411 2.91446 97.4224 1.46871 96.0036 1.46871C94.5848 1.46871 93.1661 2.91446 93.1661 4.3602C93.1661 5.80595 94.1119 7.25169 96.0036 7.25169ZM26.0108 96.4059C23.1733 96.4059 21.2816 98.8155 21.2816 101.225C21.2816 104.117 23.6462 106.044 26.0108 106.044C28.3755 106.044 30.7401 103.635 30.7401 101.225C31.213 98.8155 28.8484 96.4059 26.0108 96.4059ZM26.0108 122.429C24.1191 122.429 22.7004 123.875 22.7004 125.803C22.7004 127.73 24.1191 129.176 26.0108 129.176C27.9025 129.176 29.3213 127.73 29.3213 125.803C29.7942 123.875 27.9025 122.429 26.0108 122.429ZM49.1841 120.984C46.3466 120.984 44.4549 123.393 44.4549 125.803C44.4549 128.694 46.8195 130.622 49.1841 130.622C51.5487 130.622 53.9134 128.212 53.9134 125.803C54.3863 123.393 52.0217 120.984 49.1841 120.984ZM165.523 7.25169C166.942 7.25169 168.361 5.80595 168.361 4.3602C168.361 2.91446 166.942 1.46871 165.523 1.46871C164.105 1.46871 162.686 2.91446 162.686 4.3602C162.686 5.80595 164.105 7.25169 165.523 7.25169ZM212.343 84.358C216.126 84.358 219.437 80.9846 219.437 77.1293C219.437 73.274 216.126 69.9006 212.343 69.9006C208.56 69.9006 205.249 73.274 205.249 77.1293C205.249 80.9846 208.087 84.358 212.343 84.358ZM212.343 57.8527C215.181 57.8527 217.072 55.4432 217.072 53.0336C217.072 50.1421 214.708 48.2144 212.343 48.2144C209.978 48.2144 207.614 50.624 207.614 53.0336C207.141 55.4432 209.505 57.8527 212.343 57.8527ZM188.697 33.757C191.534 33.757 193.426 31.3474 193.426 28.9379C193.426 26.0464 191.061 24.1187 188.697 24.1187C185.859 24.1187 183.968 26.5283 183.968 28.9379C183.968 31.3474 186.332 33.757 188.697 33.757ZM119.177 61.7081C123.906 61.7081 127.69 57.8527 127.69 53.0336C127.69 48.2144 123.906 44.3591 119.177 44.3591C114.448 44.3591 110.664 48.2144 110.664 53.0336C110.664 57.8527 114.448 61.7081 119.177 61.7081ZM236.935 56.407C238.827 56.407 240.245 54.9612 240.245 53.0336C240.245 51.1059 238.827 49.6602 236.935 49.6602C235.043 49.6602 233.625 51.1059 233.625 53.0336C233.625 54.9612 235.043 56.407 236.935 56.407ZM188.697 60.2623C192.48 60.2623 195.791 56.8889 195.791 53.0336C195.791 49.1783 192.48 45.8049 188.697 45.8049C184.913 45.8049 181.603 49.1783 181.603 53.0336C181.603 56.8889 184.913 60.2623 188.697 60.2623ZM212.343 32.3113C214.235 32.3113 215.653 30.8655 215.653 28.9379C215.653 27.0102 214.235 25.5644 212.343 25.5644C210.451 25.5644 209.032 27.0102 209.032 28.9379C208.56 30.3836 209.978 32.3113 212.343 32.3113ZM236.935 82.4304C239.773 82.4304 241.664 80.0208 241.664 77.6112C241.664 74.7197 239.3 72.7921 236.935 72.7921C234.097 72.7921 232.206 75.2017 232.206 77.6112C232.206 80.0208 234.57 82.4304 236.935 82.4304ZM258.69 80.0208C260.108 80.0208 261.527 78.5751 261.527 77.1293C261.527 75.6836 260.108 74.2378 258.69 74.2378C257.271 74.2378 255.852 75.6836 255.852 77.1293C255.852 79.057 257.271 80.0208 258.69 80.0208ZM142.823 61.7081C147.552 61.7081 151.336 57.8527 151.336 53.0336C151.336 48.2144 147.552 44.3591 142.823 44.3591C138.094 44.3591 134.31 48.2144 134.31 53.0336C134.31 57.8527 138.094 61.7081 142.823 61.7081ZM165.523 33.757C168.361 33.757 170.253 31.3474 170.253 28.9379C170.253 26.0464 167.888 24.1187 165.523 24.1187C162.686 24.1187 160.794 26.5283 160.794 28.9379C160.794 31.3474 162.686 33.757 165.523 33.757ZM119.177 33.757C122.014 33.757 123.906 31.3474 123.906 28.9379C123.906 26.0464 121.542 24.1187 119.177 24.1187C116.339 24.1187 114.448 26.5283 114.448 28.9379C113.975 31.3474 116.339 33.757 119.177 33.757ZM142.823 33.757C145.661 33.757 147.552 31.3474 147.552 28.9379C147.552 26.0464 145.188 24.1187 142.823 24.1187C139.986 24.1187 138.094 26.5283 138.094 28.9379C138.094 31.3474 139.986 33.757 142.823 33.757ZM119.177 7.7336C121.069 7.7336 122.487 6.28786 122.487 4.3602C122.487 2.43254 121.069 0.986798 119.177 0.986798C117.285 0.986798 115.866 2.43254 115.866 4.3602C115.394 6.28786 117.285 7.7336 119.177 7.7336ZM72.8303 93.9963C68.574 93.9963 65.2635 97.3697 65.2635 101.707C65.2635 106.044 68.574 109.418 72.8303 109.418C77.0866 109.418 80.3971 106.044 80.3971 101.707C80.3971 97.3697 77.0866 93.9963 72.8303 93.9963ZM142.823 7.7336C144.715 7.7336 146.134 6.28786 146.134 4.3602C146.606 1.95063 144.715 0.504883 142.823 0.504883C140.931 0.504883 139.513 1.95063 139.513 3.87829C139.513 6.28786 140.931 7.7336 142.823 7.7336ZM165.523 61.7081C170.253 61.7081 174.036 57.8527 174.036 53.0336C174.036 48.2144 170.253 44.3591 165.523 44.3591C160.794 44.3591 157.011 48.2144 157.011 53.0336C157.011 57.8527 160.794 61.7081 165.523 61.7081ZM188.697 117.128C183.967 117.128 180.184 120.984 180.184 125.803C180.184 130.622 183.967 134.477 188.697 134.477C193.426 134.477 197.209 130.622 197.209 125.803C197.209 120.984 193.426 117.128 188.697 117.128ZM188.697 169.657C185.859 169.657 183.968 172.067 183.968 174.476C183.968 177.368 186.332 179.295 188.697 179.295C191.534 179.295 193.426 176.886 193.426 174.476C193.899 172.067 191.534 169.657 188.697 169.657ZM188.697 93.0325C183.967 93.0325 180.184 96.8878 180.184 101.707C180.184 106.526 183.967 110.381 188.697 110.381C193.426 110.381 197.209 106.526 197.209 101.707C197.209 96.8878 193.426 93.0325 188.697 93.0325ZM188.697 143.152C184.913 143.152 181.603 146.525 181.603 150.38C181.603 154.236 184.913 157.609 188.697 157.609C192.48 157.609 195.791 154.236 195.791 150.38C195.791 146.525 192.953 143.152 188.697 143.152ZM212.343 171.103C210.451 171.103 209.032 172.548 209.032 174.476C209.032 176.404 210.451 177.85 212.343 177.85C214.235 177.85 215.653 176.404 215.653 174.476C215.653 172.548 214.235 171.103 212.343 171.103ZM188.697 68.4549C183.967 68.4549 180.184 72.3102 180.184 77.1293C180.184 81.9485 183.967 85.8038 188.697 85.8038C193.426 85.8038 197.209 81.9485 197.209 77.1293C197.209 72.3102 193.426 68.4549 188.697 68.4549ZM165.523 92.5506C160.321 92.5506 156.538 96.8878 156.538 101.707C156.538 107.008 160.794 110.863 165.523 110.863C170.726 110.863 174.509 106.526 174.509 101.707C174.509 96.4059 170.726 92.5506 165.523 92.5506ZM165.523 67.9729C160.321 67.9729 156.538 72.3102 156.538 77.1293C156.538 82.4304 160.794 86.2857 165.523 86.2857C170.726 86.2857 174.509 81.9485 174.509 77.1293C174.509 72.3102 170.726 67.9729 165.523 67.9729ZM188.697 220.74C187.278 220.74 185.859 222.186 185.859 223.631C185.859 225.077 187.278 226.523 188.697 226.523C190.116 226.523 191.534 225.077 191.534 223.631C191.534 221.704 190.588 220.74 188.697 220.74ZM188.697 195.68C186.805 195.68 185.386 197.126 185.386 199.054C185.386 200.981 186.805 202.427 188.697 202.427C190.588 202.427 192.007 200.981 192.007 199.054C192.48 197.126 191.061 195.68 188.697 195.68ZM236.935 120.984C234.097 120.984 232.206 123.393 232.206 125.803C232.206 128.694 234.57 130.622 236.935 130.622C239.773 130.622 241.664 128.212 241.664 125.803C242.137 123.393 239.773 120.984 236.935 120.984ZM258.69 122.911C257.271 122.911 255.852 124.357 255.852 125.803C255.852 127.248 257.271 128.694 258.69 128.694C260.108 128.694 261.527 127.248 261.527 125.803C261.527 124.357 260.108 122.911 258.69 122.911ZM236.935 94.4783C233.152 94.4783 229.841 97.8517 229.841 101.707C229.841 105.562 233.152 108.936 236.935 108.936C240.718 108.936 244.029 105.562 244.029 101.707C244.029 97.3697 241.191 94.4783 236.935 94.4783ZM165.523 117.128C160.794 117.128 157.011 120.984 157.011 125.803C157.011 130.622 160.794 134.477 165.523 134.477C170.253 134.477 174.036 130.622 174.036 125.803C174.036 120.984 170.253 117.128 165.523 117.128ZM258.69 97.8517C256.798 97.8517 255.379 99.2974 255.379 101.225C255.379 103.153 256.798 104.598 258.69 104.598C260.581 104.598 262 103.153 262 101.225C262 99.7793 260.581 97.8517 258.69 97.8517ZM212.343 118.574C208.56 118.574 205.249 121.947 205.249 125.803C205.249 129.658 208.56 133.031 212.343 133.031C216.126 133.031 219.437 129.658 219.437 125.803C219.437 121.947 216.126 118.574 212.343 118.574ZM212.343 145.079C209.505 145.079 207.614 147.489 207.614 149.898C207.614 152.79 209.978 154.718 212.343 154.718C214.708 154.718 217.072 152.308 217.072 149.898C217.072 147.489 214.708 145.079 212.343 145.079ZM236.935 146.525C235.043 146.525 233.625 147.971 233.625 149.898C233.625 151.826 235.043 153.272 236.935 153.272C238.827 153.272 240.245 151.826 240.245 149.898C240.718 148.453 238.827 146.525 236.935 146.525ZM72.8303 69.4187C68.574 69.4187 65.2635 72.7921 65.2635 77.1293C65.2635 81.4666 68.574 84.84 72.8303 84.84C77.0866 84.84 80.3971 81.4666 80.3971 77.1293C80.3971 72.7921 77.0866 69.4187 72.8303 69.4187ZM212.343 93.0325C207.614 93.0325 203.83 96.8878 203.83 101.707C203.83 106.526 207.614 110.381 212.343 110.381C217.072 110.381 220.856 106.526 220.856 101.707C220.856 96.8878 217.072 93.0325 212.343 93.0325ZM119.177 145.079C116.339 145.079 114.448 147.489 114.448 149.898C114.448 152.79 116.812 154.718 119.177 154.718C122.014 154.718 123.906 152.308 123.906 149.898C123.906 147.489 122.014 145.079 119.177 145.079ZM119.177 118.574C115.393 118.574 112.083 121.947 112.083 125.803C112.083 129.658 115.393 133.031 119.177 133.031C122.96 133.031 126.271 129.658 126.271 125.803C126.271 121.947 122.96 118.574 119.177 118.574ZM119.177 92.5506C113.975 92.5506 110.191 96.8878 110.191 101.707C110.191 107.008 114.448 110.863 119.177 110.863C124.379 110.863 128.162 106.526 128.162 101.707C128.162 96.4059 124.379 92.5506 119.177 92.5506ZM119.177 171.103C117.285 171.103 115.866 172.548 115.866 174.476C115.866 176.404 117.285 177.85 119.177 177.85C121.069 177.85 122.487 176.404 122.487 174.476C122.487 172.548 121.069 171.103 119.177 171.103ZM119.177 67.9729C113.975 67.9729 110.191 72.3102 110.191 77.1293C110.191 82.4304 114.448 86.2857 119.177 86.2857C124.379 86.2857 128.162 81.9485 128.162 77.1293C128.162 72.3102 124.379 67.9729 119.177 67.9729ZM96.0036 146.525C94.1119 146.525 92.6931 147.971 92.6931 149.898C92.6931 151.826 94.1119 153.272 96.0036 153.272C97.8953 153.272 99.3141 151.826 99.3141 149.898C99.3141 148.453 97.8953 146.525 96.0036 146.525ZM96.0036 118.574C92.2202 118.574 88.9097 121.947 88.9097 125.803C88.9097 129.658 92.2202 133.031 96.0036 133.031C99.787 133.031 103.097 129.658 103.097 125.803C103.097 121.947 99.787 118.574 96.0036 118.574ZM96.0036 68.4549C91.2744 68.4549 87.491 72.3102 87.491 77.1293C87.491 81.9485 91.2744 85.8038 96.0036 85.8038C100.733 85.8038 104.516 81.9485 104.516 77.1293C104.516 72.3102 100.733 68.4549 96.0036 68.4549ZM96.0036 93.0325C91.2744 93.0325 87.491 96.8878 87.491 101.707C87.491 106.526 91.2744 110.381 96.0036 110.381C100.733 110.381 104.516 106.526 104.516 101.707C104.516 96.8878 100.733 93.0325 96.0036 93.0325ZM165.523 195.68C163.632 195.68 162.213 197.126 162.213 199.054C162.213 200.981 163.632 202.427 165.523 202.427C167.415 202.427 168.834 200.981 168.834 199.054C169.307 197.126 167.415 195.68 165.523 195.68ZM142.823 171.103C140.931 171.103 139.513 172.548 139.513 174.476C139.513 176.404 140.931 177.85 142.823 177.85C144.715 177.85 146.134 176.404 146.134 174.476C146.606 172.548 144.715 171.103 142.823 171.103ZM165.523 169.657C162.686 169.657 160.794 172.067 160.794 174.476C160.794 177.368 163.159 179.295 165.523 179.295C168.361 179.295 170.253 176.886 170.253 174.476C170.726 172.067 168.361 169.657 165.523 169.657ZM142.823 67.9729C137.621 67.9729 133.838 72.3102 133.838 77.1293C133.838 82.4304 138.094 86.2857 142.823 86.2857C148.025 86.2857 151.809 81.9485 151.809 77.1293C151.809 72.3102 148.025 67.9729 142.823 67.9729ZM165.523 143.152C161.74 143.152 158.43 146.525 158.43 150.38C158.43 154.236 161.74 157.609 165.523 157.609C169.307 157.609 172.617 154.236 172.617 150.38C172.617 146.525 169.78 143.152 165.523 143.152ZM142.823 143.152C139.04 143.152 135.729 146.525 135.729 150.38C135.729 154.236 139.04 157.609 142.823 157.609C146.606 157.609 149.917 154.236 149.917 150.38C149.917 146.525 146.606 143.152 142.823 143.152ZM142.823 117.128C138.094 117.128 134.31 120.984 134.31 125.803C134.31 130.622 138.094 134.477 142.823 134.477C147.552 134.477 151.336 130.622 151.336 125.803C151.336 120.984 147.552 117.128 142.823 117.128ZM142.823 92.5506C137.621 92.5506 133.838 96.8878 133.838 101.707C133.838 107.008 138.094 110.863 142.823 110.863C148.025 110.863 151.809 106.526 151.809 101.707C151.809 96.4059 148.025 92.5506 142.823 92.5506Z" fill="#334A77"/>
</g>
</svg>
